<mxfile host="app.diagrams.net" modified="2024-01-27T03:10:11.579Z" agent="Mozilla/5.0 (Windows NT 10.0; Win64; x64) AppleWebKit/537.36 (KHTML, like Gecko) Chrome/120.0.0.0 Safari/537.36" etag="rhXvj5Q4ILUhLtlg3nTa" version="23.0.2" type="device">
  <diagram name="Page-1" id="bd83a815-5ea8-2e97-e5ec-87c9f400f2fa">
    <mxGraphModel dx="2049" dy="1129" grid="1" gridSize="10" guides="1" tooltips="1" connect="1" arrows="1" fold="1" page="1" pageScale="1.5" pageWidth="1169" pageHeight="826" background="none" math="0" shadow="0">
      <root>
        <mxCell id="0" style=";html=1;" />
        <mxCell id="1" style=";html=1;" parent="0" />
        <mxCell id="AGePUSQwTv246vnF2TKD-104" value="" style="shape=table;startSize=0;container=1;collapsible=0;childLayout=tableLayout;fontSize=16;fillColor=default;gradientColor=none;" vertex="1" parent="1">
          <mxGeometry x="130" y="140" width="1540" height="588" as="geometry" />
        </mxCell>
        <mxCell id="AGePUSQwTv246vnF2TKD-137" style="shape=tableRow;horizontal=0;startSize=0;swimlaneHead=0;swimlaneBody=0;strokeColor=inherit;top=0;left=0;bottom=0;right=0;collapsible=0;dropTarget=0;fillColor=none;points=[[0,0.5],[1,0.5]];portConstraint=eastwest;fontSize=16;" vertex="1" parent="AGePUSQwTv246vnF2TKD-104">
          <mxGeometry width="1540" height="117" as="geometry" />
        </mxCell>
        <mxCell id="AGePUSQwTv246vnF2TKD-138" value="Исполнитель&amp;nbsp;" style="shape=partialRectangle;html=1;whiteSpace=wrap;connectable=0;strokeColor=inherit;overflow=hidden;fillColor=none;top=0;left=0;bottom=0;right=0;pointerEvents=1;fontSize=16;" vertex="1" parent="AGePUSQwTv246vnF2TKD-137">
          <mxGeometry width="220" height="117" as="geometry">
            <mxRectangle width="220" height="117" as="alternateBounds" />
          </mxGeometry>
        </mxCell>
        <mxCell id="AGePUSQwTv246vnF2TKD-139" value="Название бизнес-процесса" style="shape=partialRectangle;html=1;whiteSpace=wrap;connectable=0;strokeColor=inherit;overflow=hidden;fillColor=default;top=0;left=0;bottom=0;right=0;pointerEvents=1;fontSize=16;" vertex="1" parent="AGePUSQwTv246vnF2TKD-137">
          <mxGeometry x="220" width="220" height="117" as="geometry">
            <mxRectangle width="220" height="117" as="alternateBounds" />
          </mxGeometry>
        </mxCell>
        <mxCell id="AGePUSQwTv246vnF2TKD-140" value="Входы" style="shape=partialRectangle;html=1;whiteSpace=wrap;connectable=0;strokeColor=inherit;overflow=hidden;fillColor=none;top=0;left=0;bottom=0;right=0;pointerEvents=1;fontSize=16;" vertex="1" parent="AGePUSQwTv246vnF2TKD-137">
          <mxGeometry x="440" width="220" height="117" as="geometry">
            <mxRectangle width="220" height="117" as="alternateBounds" />
          </mxGeometry>
        </mxCell>
        <mxCell id="AGePUSQwTv246vnF2TKD-141" value="От кого" style="shape=partialRectangle;html=1;whiteSpace=wrap;connectable=0;strokeColor=inherit;overflow=hidden;fillColor=none;top=0;left=0;bottom=0;right=0;pointerEvents=1;fontSize=16;" vertex="1" parent="AGePUSQwTv246vnF2TKD-137">
          <mxGeometry x="660" width="220" height="117" as="geometry">
            <mxRectangle width="220" height="117" as="alternateBounds" />
          </mxGeometry>
        </mxCell>
        <mxCell id="AGePUSQwTv246vnF2TKD-142" value="Управление" style="shape=partialRectangle;html=1;whiteSpace=wrap;connectable=0;strokeColor=inherit;overflow=hidden;fillColor=none;top=0;left=0;bottom=0;right=0;pointerEvents=1;fontSize=16;" vertex="1" parent="AGePUSQwTv246vnF2TKD-137">
          <mxGeometry x="880" width="220" height="117" as="geometry">
            <mxRectangle width="220" height="117" as="alternateBounds" />
          </mxGeometry>
        </mxCell>
        <mxCell id="AGePUSQwTv246vnF2TKD-143" value="Выходы" style="shape=partialRectangle;html=1;whiteSpace=wrap;connectable=0;strokeColor=inherit;overflow=hidden;fillColor=none;top=0;left=0;bottom=0;right=0;pointerEvents=1;fontSize=16;" vertex="1" parent="AGePUSQwTv246vnF2TKD-137">
          <mxGeometry x="1100" width="220" height="117" as="geometry">
            <mxRectangle width="220" height="117" as="alternateBounds" />
          </mxGeometry>
        </mxCell>
        <mxCell id="AGePUSQwTv246vnF2TKD-144" value="Кому" style="shape=partialRectangle;html=1;whiteSpace=wrap;connectable=0;strokeColor=inherit;overflow=hidden;fillColor=none;top=0;left=0;bottom=0;right=0;pointerEvents=1;fontSize=16;" vertex="1" parent="AGePUSQwTv246vnF2TKD-137">
          <mxGeometry x="1320" width="220" height="117" as="geometry">
            <mxRectangle width="220" height="117" as="alternateBounds" />
          </mxGeometry>
        </mxCell>
        <mxCell id="AGePUSQwTv246vnF2TKD-105" value="" style="shape=tableRow;horizontal=0;startSize=0;swimlaneHead=0;swimlaneBody=0;strokeColor=inherit;top=0;left=0;bottom=0;right=0;collapsible=0;dropTarget=0;fillColor=none;points=[[0,0.5],[1,0.5]];portConstraint=eastwest;fontSize=16;" vertex="1" parent="AGePUSQwTv246vnF2TKD-104">
          <mxGeometry y="117" width="1540" height="117" as="geometry" />
        </mxCell>
        <mxCell id="AGePUSQwTv246vnF2TKD-133" value="Администратор&amp;nbsp;" style="shape=partialRectangle;html=1;whiteSpace=wrap;connectable=0;strokeColor=inherit;overflow=hidden;fillColor=none;top=0;left=0;bottom=0;right=0;pointerEvents=1;fontSize=16;" vertex="1" parent="AGePUSQwTv246vnF2TKD-105">
          <mxGeometry width="220" height="117" as="geometry">
            <mxRectangle width="220" height="117" as="alternateBounds" />
          </mxGeometry>
        </mxCell>
        <mxCell id="AGePUSQwTv246vnF2TKD-125" value="управление клиентскими запросами и бронированием" style="shape=partialRectangle;html=1;whiteSpace=wrap;connectable=0;strokeColor=inherit;overflow=hidden;fillColor=none;top=0;left=0;bottom=0;right=0;pointerEvents=1;fontSize=16;" vertex="1" parent="AGePUSQwTv246vnF2TKD-105">
          <mxGeometry x="220" width="220" height="117" as="geometry">
            <mxRectangle width="220" height="117" as="alternateBounds" />
          </mxGeometry>
        </mxCell>
        <mxCell id="AGePUSQwTv246vnF2TKD-106" value="Клиентские запросы&lt;br&gt;(дата, время, тип услуги)" style="shape=partialRectangle;html=1;whiteSpace=wrap;connectable=0;strokeColor=inherit;overflow=hidden;fillColor=none;top=0;left=0;bottom=0;right=0;pointerEvents=1;fontSize=16;" vertex="1" parent="AGePUSQwTv246vnF2TKD-105">
          <mxGeometry x="440" width="220" height="117" as="geometry">
            <mxRectangle width="220" height="117" as="alternateBounds" />
          </mxGeometry>
        </mxCell>
        <mxCell id="AGePUSQwTv246vnF2TKD-107" value="клиенты фотостудии" style="shape=partialRectangle;html=1;whiteSpace=wrap;connectable=0;strokeColor=inherit;overflow=hidden;fillColor=none;top=0;left=0;bottom=0;right=0;pointerEvents=1;fontSize=16;" vertex="1" parent="AGePUSQwTv246vnF2TKD-105">
          <mxGeometry x="660" width="220" height="117" as="geometry">
            <mxRectangle width="220" height="117" as="alternateBounds" />
          </mxGeometry>
        </mxCell>
        <mxCell id="AGePUSQwTv246vnF2TKD-108" value="Расписание бронирование" style="shape=partialRectangle;html=1;whiteSpace=wrap;connectable=0;strokeColor=inherit;overflow=hidden;fillColor=none;top=0;left=0;bottom=0;right=0;pointerEvents=1;fontSize=16;" vertex="1" parent="AGePUSQwTv246vnF2TKD-105">
          <mxGeometry x="880" width="220" height="117" as="geometry">
            <mxRectangle width="220" height="117" as="alternateBounds" />
          </mxGeometry>
        </mxCell>
        <mxCell id="AGePUSQwTv246vnF2TKD-129" value="Подтвержденные бронирование" style="shape=partialRectangle;html=1;whiteSpace=wrap;connectable=0;strokeColor=inherit;overflow=hidden;fillColor=none;top=0;left=0;bottom=0;right=0;pointerEvents=1;fontSize=16;" vertex="1" parent="AGePUSQwTv246vnF2TKD-105">
          <mxGeometry x="1100" width="220" height="117" as="geometry">
            <mxRectangle width="220" height="117" as="alternateBounds" />
          </mxGeometry>
        </mxCell>
        <mxCell id="AGePUSQwTv246vnF2TKD-145" value="Фотограф" style="shape=partialRectangle;html=1;whiteSpace=wrap;connectable=0;strokeColor=inherit;overflow=hidden;fillColor=none;top=0;left=0;bottom=0;right=0;pointerEvents=1;fontSize=16;" vertex="1" parent="AGePUSQwTv246vnF2TKD-105">
          <mxGeometry x="1320" width="220" height="117" as="geometry">
            <mxRectangle width="220" height="117" as="alternateBounds" />
          </mxGeometry>
        </mxCell>
        <mxCell id="AGePUSQwTv246vnF2TKD-109" value="" style="shape=tableRow;horizontal=0;startSize=0;swimlaneHead=0;swimlaneBody=0;strokeColor=inherit;top=0;left=0;bottom=0;right=0;collapsible=0;dropTarget=0;fillColor=none;points=[[0,0.5],[1,0.5]];portConstraint=eastwest;fontSize=16;" vertex="1" parent="AGePUSQwTv246vnF2TKD-104">
          <mxGeometry y="234" width="1540" height="118" as="geometry" />
        </mxCell>
        <mxCell id="AGePUSQwTv246vnF2TKD-134" value="Фотограф" style="shape=partialRectangle;html=1;whiteSpace=wrap;connectable=0;strokeColor=inherit;overflow=hidden;fillColor=none;top=0;left=0;bottom=0;right=0;pointerEvents=1;fontSize=16;" vertex="1" parent="AGePUSQwTv246vnF2TKD-109">
          <mxGeometry width="220" height="118" as="geometry">
            <mxRectangle width="220" height="118" as="alternateBounds" />
          </mxGeometry>
        </mxCell>
        <mxCell id="AGePUSQwTv246vnF2TKD-126" value="Проведение фотосесий" style="shape=partialRectangle;html=1;whiteSpace=wrap;connectable=0;strokeColor=inherit;overflow=hidden;fillColor=none;top=0;left=0;bottom=0;right=0;pointerEvents=1;fontSize=16;" vertex="1" parent="AGePUSQwTv246vnF2TKD-109">
          <mxGeometry x="220" width="220" height="118" as="geometry">
            <mxRectangle width="220" height="118" as="alternateBounds" />
          </mxGeometry>
        </mxCell>
        <mxCell id="AGePUSQwTv246vnF2TKD-110" value="Расписание съемок" style="shape=partialRectangle;html=1;whiteSpace=wrap;connectable=0;strokeColor=inherit;overflow=hidden;fillColor=none;top=0;left=0;bottom=0;right=0;pointerEvents=1;fontSize=16;" vertex="1" parent="AGePUSQwTv246vnF2TKD-109">
          <mxGeometry x="440" width="220" height="118" as="geometry">
            <mxRectangle width="220" height="118" as="alternateBounds" />
          </mxGeometry>
        </mxCell>
        <mxCell id="AGePUSQwTv246vnF2TKD-111" value="администратор" style="shape=partialRectangle;html=1;whiteSpace=wrap;connectable=0;strokeColor=inherit;overflow=hidden;fillColor=none;top=0;left=0;bottom=0;right=0;pointerEvents=1;fontSize=16;" vertex="1" parent="AGePUSQwTv246vnF2TKD-109">
          <mxGeometry x="660" width="220" height="118" as="geometry">
            <mxRectangle width="220" height="118" as="alternateBounds" />
          </mxGeometry>
        </mxCell>
        <mxCell id="AGePUSQwTv246vnF2TKD-112" value="Используемое &lt;br&gt;оборудование" style="shape=partialRectangle;html=1;whiteSpace=wrap;connectable=0;strokeColor=inherit;overflow=hidden;fillColor=none;top=0;left=0;bottom=0;right=0;pointerEvents=1;fontSize=16;" vertex="1" parent="AGePUSQwTv246vnF2TKD-109">
          <mxGeometry x="880" width="220" height="118" as="geometry">
            <mxRectangle width="220" height="118" as="alternateBounds" />
          </mxGeometry>
        </mxCell>
        <mxCell id="AGePUSQwTv246vnF2TKD-130" value="Обработанные фотографии" style="shape=partialRectangle;html=1;whiteSpace=wrap;connectable=0;strokeColor=inherit;overflow=hidden;fillColor=none;top=0;left=0;bottom=0;right=0;pointerEvents=1;fontSize=16;" vertex="1" parent="AGePUSQwTv246vnF2TKD-109">
          <mxGeometry x="1100" width="220" height="118" as="geometry">
            <mxRectangle width="220" height="118" as="alternateBounds" />
          </mxGeometry>
        </mxCell>
        <mxCell id="AGePUSQwTv246vnF2TKD-146" value="клиенты" style="shape=partialRectangle;html=1;whiteSpace=wrap;connectable=0;strokeColor=inherit;overflow=hidden;fillColor=none;top=0;left=0;bottom=0;right=0;pointerEvents=1;fontSize=16;" vertex="1" parent="AGePUSQwTv246vnF2TKD-109">
          <mxGeometry x="1320" width="220" height="118" as="geometry">
            <mxRectangle width="220" height="118" as="alternateBounds" />
          </mxGeometry>
        </mxCell>
        <mxCell id="AGePUSQwTv246vnF2TKD-117" style="shape=tableRow;horizontal=0;startSize=0;swimlaneHead=0;swimlaneBody=0;strokeColor=inherit;top=0;left=0;bottom=0;right=0;collapsible=0;dropTarget=0;fillColor=none;points=[[0,0.5],[1,0.5]];portConstraint=eastwest;fontSize=16;" vertex="1" parent="AGePUSQwTv246vnF2TKD-104">
          <mxGeometry y="352" width="1540" height="118" as="geometry" />
        </mxCell>
        <mxCell id="AGePUSQwTv246vnF2TKD-135" value="Редактор" style="shape=partialRectangle;html=1;whiteSpace=wrap;connectable=0;strokeColor=inherit;overflow=hidden;fillColor=none;top=0;left=0;bottom=0;right=0;pointerEvents=1;fontSize=16;" vertex="1" parent="AGePUSQwTv246vnF2TKD-117">
          <mxGeometry width="220" height="118" as="geometry">
            <mxRectangle width="220" height="118" as="alternateBounds" />
          </mxGeometry>
        </mxCell>
        <mxCell id="AGePUSQwTv246vnF2TKD-127" value="Редактирование и&amp;nbsp;&lt;br&gt;обработка фотографий&lt;span style=&quot;white-space: pre;&quot;&gt;&#x9;&lt;/span&gt;" style="shape=partialRectangle;html=1;whiteSpace=wrap;connectable=0;strokeColor=inherit;overflow=hidden;fillColor=none;top=0;left=0;bottom=0;right=0;pointerEvents=1;fontSize=16;" vertex="1" parent="AGePUSQwTv246vnF2TKD-117">
          <mxGeometry x="220" width="220" height="118" as="geometry">
            <mxRectangle width="220" height="118" as="alternateBounds" />
          </mxGeometry>
        </mxCell>
        <mxCell id="AGePUSQwTv246vnF2TKD-118" value="Список фотографии" style="shape=partialRectangle;html=1;whiteSpace=wrap;connectable=0;strokeColor=inherit;overflow=hidden;fillColor=none;top=0;left=0;bottom=0;right=0;pointerEvents=1;fontSize=16;" vertex="1" parent="AGePUSQwTv246vnF2TKD-117">
          <mxGeometry x="440" width="220" height="118" as="geometry">
            <mxRectangle width="220" height="118" as="alternateBounds" />
          </mxGeometry>
        </mxCell>
        <mxCell id="AGePUSQwTv246vnF2TKD-119" value="Фотограф" style="shape=partialRectangle;html=1;whiteSpace=wrap;connectable=0;strokeColor=inherit;overflow=hidden;fillColor=none;top=0;left=0;bottom=0;right=0;pointerEvents=1;fontSize=16;" vertex="1" parent="AGePUSQwTv246vnF2TKD-117">
          <mxGeometry x="660" width="220" height="118" as="geometry">
            <mxRectangle width="220" height="118" as="alternateBounds" />
          </mxGeometry>
        </mxCell>
        <mxCell id="AGePUSQwTv246vnF2TKD-120" value="Используемое программное&lt;br&gt;обеспечение для обработки" style="shape=partialRectangle;html=1;whiteSpace=wrap;connectable=0;strokeColor=inherit;overflow=hidden;fillColor=none;top=0;left=0;bottom=0;right=0;pointerEvents=1;fontSize=16;" vertex="1" parent="AGePUSQwTv246vnF2TKD-117">
          <mxGeometry x="880" width="220" height="118" as="geometry">
            <mxRectangle width="220" height="118" as="alternateBounds" />
          </mxGeometry>
        </mxCell>
        <mxCell id="AGePUSQwTv246vnF2TKD-131" value="Обработанные фотографии" style="shape=partialRectangle;html=1;whiteSpace=wrap;connectable=0;strokeColor=inherit;overflow=hidden;fillColor=none;top=0;left=0;bottom=0;right=0;pointerEvents=1;fontSize=16;" vertex="1" parent="AGePUSQwTv246vnF2TKD-117">
          <mxGeometry x="1100" width="220" height="118" as="geometry">
            <mxRectangle width="220" height="118" as="alternateBounds" />
          </mxGeometry>
        </mxCell>
        <mxCell id="AGePUSQwTv246vnF2TKD-147" value="фотограф/клиенты" style="shape=partialRectangle;html=1;whiteSpace=wrap;connectable=0;strokeColor=inherit;overflow=hidden;fillColor=none;top=0;left=0;bottom=0;right=0;pointerEvents=1;fontSize=16;" vertex="1" parent="AGePUSQwTv246vnF2TKD-117">
          <mxGeometry x="1320" width="220" height="118" as="geometry">
            <mxRectangle width="220" height="118" as="alternateBounds" />
          </mxGeometry>
        </mxCell>
        <mxCell id="AGePUSQwTv246vnF2TKD-121" style="shape=tableRow;horizontal=0;startSize=0;swimlaneHead=0;swimlaneBody=0;strokeColor=inherit;top=0;left=0;bottom=0;right=0;collapsible=0;dropTarget=0;fillColor=none;points=[[0,0.5],[1,0.5]];portConstraint=eastwest;fontSize=16;" vertex="1" parent="AGePUSQwTv246vnF2TKD-104">
          <mxGeometry y="470" width="1540" height="118" as="geometry" />
        </mxCell>
        <mxCell id="AGePUSQwTv246vnF2TKD-136" value="Менеджер по обслуживанию&lt;br&gt;клиентов" style="shape=partialRectangle;html=1;whiteSpace=wrap;connectable=0;strokeColor=inherit;overflow=hidden;fillColor=none;top=0;left=0;bottom=0;right=0;pointerEvents=1;fontSize=16;" vertex="1" parent="AGePUSQwTv246vnF2TKD-121">
          <mxGeometry width="220" height="118" as="geometry">
            <mxRectangle width="220" height="118" as="alternateBounds" />
          </mxGeometry>
        </mxCell>
        <mxCell id="AGePUSQwTv246vnF2TKD-128" value="Обслуживание клиентов" style="shape=partialRectangle;html=1;whiteSpace=wrap;connectable=0;strokeColor=inherit;overflow=hidden;fillColor=none;top=0;left=0;bottom=0;right=0;pointerEvents=1;fontSize=16;" vertex="1" parent="AGePUSQwTv246vnF2TKD-121">
          <mxGeometry x="220" width="220" height="118" as="geometry">
            <mxRectangle width="220" height="118" as="alternateBounds" />
          </mxGeometry>
        </mxCell>
        <mxCell id="AGePUSQwTv246vnF2TKD-122" value="База данных клиентов" style="shape=partialRectangle;html=1;whiteSpace=wrap;connectable=0;strokeColor=inherit;overflow=hidden;fillColor=none;top=0;left=0;bottom=0;right=0;pointerEvents=1;fontSize=16;" vertex="1" parent="AGePUSQwTv246vnF2TKD-121">
          <mxGeometry x="440" width="220" height="118" as="geometry">
            <mxRectangle width="220" height="118" as="alternateBounds" />
          </mxGeometry>
        </mxCell>
        <mxCell id="AGePUSQwTv246vnF2TKD-123" value="Клиенты фотостудий" style="shape=partialRectangle;html=1;whiteSpace=wrap;connectable=0;strokeColor=inherit;overflow=hidden;fillColor=none;top=0;left=0;bottom=0;right=0;pointerEvents=1;fontSize=16;" vertex="1" parent="AGePUSQwTv246vnF2TKD-121">
          <mxGeometry x="660" width="220" height="118" as="geometry">
            <mxRectangle width="220" height="118" as="alternateBounds" />
          </mxGeometry>
        </mxCell>
        <mxCell id="AGePUSQwTv246vnF2TKD-124" value="Поддержание связи с&amp;nbsp;&lt;br&gt;клиентами" style="shape=partialRectangle;html=1;whiteSpace=wrap;connectable=0;strokeColor=inherit;overflow=hidden;fillColor=none;top=0;left=0;bottom=0;right=0;pointerEvents=1;fontSize=16;" vertex="1" parent="AGePUSQwTv246vnF2TKD-121">
          <mxGeometry x="880" width="220" height="118" as="geometry">
            <mxRectangle width="220" height="118" as="alternateBounds" />
          </mxGeometry>
        </mxCell>
        <mxCell id="AGePUSQwTv246vnF2TKD-132" value="Удовлетворенные клиенты&lt;br&gt;" style="shape=partialRectangle;html=1;whiteSpace=wrap;connectable=0;strokeColor=inherit;overflow=hidden;fillColor=none;top=0;left=0;bottom=0;right=0;pointerEvents=1;fontSize=16;" vertex="1" parent="AGePUSQwTv246vnF2TKD-121">
          <mxGeometry x="1100" width="220" height="118" as="geometry">
            <mxRectangle width="220" height="118" as="alternateBounds" />
          </mxGeometry>
        </mxCell>
        <mxCell id="AGePUSQwTv246vnF2TKD-148" value="Все исполнители в фотостудий" style="shape=partialRectangle;html=1;whiteSpace=wrap;connectable=0;strokeColor=inherit;overflow=hidden;fillColor=none;top=0;left=0;bottom=0;right=0;pointerEvents=1;fontSize=16;" vertex="1" parent="AGePUSQwTv246vnF2TKD-121">
          <mxGeometry x="1320" width="220" height="118" as="geometry">
            <mxRectangle width="220" height="118" as="alternateBounds" />
          </mxGeometry>
        </mxCell>
        <mxCell id="AGePUSQwTv246vnF2TKD-150" value="&lt;font style=&quot;font-size: 28px;&quot;&gt;Основные бизнес-процессы организации по фотостудии&lt;/font&gt;" style="text;html=1;strokeColor=none;fillColor=none;align=center;verticalAlign=middle;whiteSpace=wrap;rounded=0;" vertex="1" parent="1">
          <mxGeometry x="410" y="70" width="1000" height="30" as="geometry" />
        </mxCell>
      </root>
    </mxGraphModel>
  </diagram>
</mxfile>
